<?xml version="1.0" ?><svg id="Christmas_Icon" style="enable-background:new 0 0 56 56;" version="1.1" viewBox="0 0 56 56" xml:space="preserve" xmlns="http://www.w3.org/2000/svg" xmlns:xlink="http://www.w3.org/1999/xlink"><style type="text/css">
	.st0{fill:#F5F5F5;stroke:#3E2723;stroke-linecap:round;stroke-linejoin:round;stroke-miterlimit:10;}
	.st1{fill:#E0E0E0;}
	.st2{fill:#8D6E63;stroke:#3E2723;stroke-linecap:round;stroke-linejoin:round;stroke-miterlimit:10;}
	.st3{fill:#5D4037;}
	.st4{fill:none;stroke:#3E2723;stroke-linecap:round;stroke-linejoin:round;stroke-miterlimit:10;}
	.st5{fill:#FFD54F;stroke:#3E2723;stroke-linecap:round;stroke-linejoin:round;stroke-miterlimit:10;}
	.st6{fill:#E53935;stroke:#3E2723;stroke-linecap:round;stroke-linejoin:round;stroke-miterlimit:10;}
	.st7{fill:#B71C1C;}
	.st8{fill:#FFA000;}
	.st9{fill:#FFECB3;stroke:#3E2723;stroke-linecap:round;stroke-linejoin:round;stroke-miterlimit:10;}
	.st10{fill:#FFE082;}
	.st11{fill:#3E2723;}
	.st12{fill:#81C784;stroke:#3E2723;stroke-linecap:round;stroke-linejoin:round;stroke-miterlimit:10;}
	.st13{fill:#43A047;}
	.st14{fill:#263238;}
	.st15{fill:#4E342E;stroke:#3E2723;stroke-linecap:round;stroke-linejoin:round;stroke-miterlimit:10;}
	.st16{fill:none;}
	.st17{fill:#A1887F;stroke:#3E2723;stroke-linecap:round;stroke-linejoin:round;stroke-miterlimit:10;}
	.st18{fill:#6D4C41;}
	.st19{fill:#6D4C41;stroke:#3E2723;stroke-linecap:round;stroke-linejoin:round;stroke-miterlimit:10;}
	.st20{fill:#E0E0E0;stroke:#3E2723;stroke-miterlimit:10;}
	.st21{fill:#D81B60;stroke:#3E2723;stroke-linecap:round;stroke-linejoin:round;stroke-miterlimit:10;}
	.st22{fill:#E0E0E0;stroke:#3E2723;stroke-linecap:round;stroke-linejoin:round;stroke-miterlimit:10;}
	.st23{fill:#FBC02D;stroke:#3E2723;stroke-linecap:round;stroke-linejoin:round;stroke-miterlimit:10;}
</style><g id="Gingerman"><path class="st2" d="M48.8,15.7c-1.6-2.9-5.3-3.9-8.2-2.4l-3.7,1.9c0.9-1.7,1.3-3.6,1.1-5.7c-0.5-4.6-4.3-8.4-8.9-8.9   C23.1-0.1,18,4.6,18,10.5c0,1.7,0.4,3.2,1.1,4.6l-3.7-1.9c-2.9-1.5-6.6-0.5-8.2,2.4c-1.6,3-0.4,6.7,2.6,8.2l7,3.5   c1.2,0.6,1.7,2,1.2,3.2l-6.5,16.5c-1.1,2.9,0,6.3,2.7,7.7c0.9,0.5,1.8,0.7,2.8,0.7c2.4,0,4.6-1.4,5.6-3.8l3.1-7.8   c0.8-2.1,3.8-2.1,4.6,0l3.1,7.8c0.9,2.4,3.2,3.8,5.6,3.8c0.9,0,1.9-0.2,2.8-0.7c2.8-1.4,3.9-4.8,2.7-7.7l-6.5-16.5   c-0.5-1.2,0-2.6,1.2-3.2l7-3.5C49.2,22.4,50.4,18.6,48.8,15.7z"/><g><path class="st11" d="M39,56c-2.7,0-5.1-1.6-6-4.1l-3.1-7.8c-0.4-0.9-1.2-1.3-1.9-1.3s-1.5,0.3-1.9,1.3L23,51.9    c-1,2.5-3.4,4.1-6,4.1c-1,0-2-0.2-3-0.7c-2.9-1.5-4.2-5.2-3-8.4l6.5-16.5c0.4-1,0-2.1-1-2.5l-7-3.5c-1.6-0.8-2.8-2.2-3.3-3.9    s-0.4-3.5,0.5-5c1.6-3.1,5.6-4.2,8.9-2.6l2.5,1.2c-0.4-1.1-0.6-2.3-0.6-3.5c0-3,1.3-5.8,3.5-7.8c2.2-2,5.1-3,8.1-2.6    c4.9,0.5,8.8,4.4,9.3,9.3c0.2,1.6,0,3.2-0.6,4.7l2.5-1.2c3.2-1.6,7.2-0.4,8.9,2.6l0,0c0.8,1.6,1,3.4,0.5,5s-1.7,3.1-3.3,3.9    l-7,3.5c-0.9,0.5-1.3,1.6-1,2.5L45,46.9c1.3,3.2,0,6.9-3,8.4C41,55.8,40,56,39,56z M28,41.8c1.3,0,2.3,0.7,2.8,1.9l3.1,7.8    c0.8,2.1,2.8,3.5,5.1,3.5c0.9,0,1.7-0.2,2.5-0.6c2.5-1.3,3.6-4.4,2.5-7.1l-6.5-16.5c-0.6-1.5,0-3.1,1.4-3.8l7-3.5    c1.3-0.7,2.3-1.8,2.8-3.3c0.5-1.4,0.3-2.9-0.4-4.3c-1.4-2.6-4.8-3.6-7.5-2.2l-3.7,1.9c-0.2,0.1-0.4,0.1-0.6-0.1    c-0.2-0.2-0.2-0.4-0.1-0.6c0.9-1.7,1.2-3.5,1-5.4c-0.5-4.4-4-8-8.4-8.4c-2.7-0.3-5.4,0.6-7.4,2.4c-2,1.8-3.1,4.4-3.1,7.1    c0,1.5,0.4,3,1.1,4.4c0.1,0.2,0.1,0.4-0.1,0.6c-0.2,0.2-0.4,0.2-0.6,0.1l-3.7-1.9c-2.8-1.4-6.1-0.4-7.5,2.2    c-0.7,1.3-0.9,2.8-0.4,4.3c0.5,1.4,1.4,2.6,2.8,3.3l7,3.5c1.4,0.7,2,2.3,1.4,3.8L12,47.3c-1.1,2.7,0,5.8,2.5,7.1    c0.8,0.4,1.6,0.6,2.5,0.6c2.3,0,4.3-1.4,5.1-3.5l3.1-7.8C25.7,42.5,26.7,41.8,28,41.8z"/></g><circle class="st6" cx="28" cy="22.3" r="2"/><circle class="st6" cx="28" cy="30.3" r="2"/><circle class="st5" cx="23.5" cy="8" r="2"/><circle class="st5" cx="32.5" cy="8" r="2"/><path class="st0" d="M7.1,15.8c-1.5,3-0.3,6.6,2.7,8l5.4-10.7C12.2,11.7,8.6,12.9,7.1,15.8z"/><path class="st0" d="M14.8,55.1c0.7,0.3,1.5,0.4,2.2,0.4c2.4,0,4.6-1.4,5.6-3.8l-11.2-4.4C10.2,50.4,11.7,53.9,14.8,55.1z"/><path class="st3" d="M38.9,26.9l7-3.5c1.3-0.7,2.3-1.8,2.8-3.3c0.5-1.4,0.3-2.9-0.4-4.3c-0.9-1.6-2.5-2.6-4.3-2.8   c0.9,1,1.6,2.2,1.2,4.3c-0.4,2.4-1.9,4.4-4.1,5.4l-6,3c-1.2,0.6-1.7,2-1.2,3.2l6.2,15.7c0.9,2.2,0.7,4.7-0.6,6.8   c-0.5,0.8-1.8,1.9-3.1,2.9c0.8,0.4,1.6,0.6,2.5,0.6c0.9,0,1.7-0.2,2.5-0.6c2.5-1.3,3.6-4.4,2.5-7.1l-6.5-16.5   C36.9,29.3,37.5,27.6,38.9,26.9z"/><path class="st0" d="M48.9,15.8c1.5,3,0.3,6.6-2.7,8l-5.4-10.7C43.8,11.7,47.4,12.9,48.9,15.8z"/><path class="st1" d="M44.6,19.5l1.8,3.7c1.1-0.7,1.9-1.7,2.3-2.9c0.5-1.4,0.4-2.9-0.3-4.2c-0.9-1.8-2.6-2.8-4.4-3   c0.9,1,1.6,2.3,1.3,4.4C45.1,18.2,44.9,18.9,44.6,19.5z"/><path class="st0" d="M41.2,55.1c-0.7,0.3-1.5,0.4-2.2,0.4c-2.4,0-4.6-1.4-5.6-3.8l11.2-4.4C45.8,50.4,44.3,53.9,41.2,55.1z"/><path class="st1" d="M36.5,54.4c0.8,0.4,1.6,0.6,2.5,0.6c0.7,0,1.4-0.1,2-0.4c2.7-1.1,4-4,3.3-6.7l-3.8,1.5c-0.2,0.7-0.5,1.4-0.9,2   C39.1,52.3,37.8,53.4,36.5,54.4z"/><g><path class="st12" d="M28,16.8c-1.9,0-3.8-0.7-5.3-2.2c-0.6-0.6-0.6-1.5,0-2.1c0.6-0.6,1.5-0.6,2.1,0c1.8,1.8,4.6,1.8,6.4,0    c0.6-0.6,1.5-0.6,2.1,0c0.6,0.6,0.6,1.5,0,2.1C31.8,16,29.9,16.8,28,16.8z"/></g></g></svg>